<?xml version="1.0" encoding="utf-8"?>
<!-- Generator: Adobe Illustrator 16.0.0, SVG Export Plug-In . SVG Version: 6.00 Build 0)  -->
<!DOCTYPE svg PUBLIC "-//W3C//DTD SVG 1.1//EN" "http://www.w3.org/Graphics/SVG/1.1/DTD/svg11.dtd">
<svg version="1.1" id="Layer_1" xmlns="http://www.w3.org/2000/svg" xmlns:xlink="http://www.w3.org/1999/xlink" x="0px" y="0px"
	 width="700px" height="700px" viewBox="0 0 700 700" enable-background="new 0 0 700 700" xml:space="preserve">
<g id="Layer_7">
	<g>
		<path fill="none" stroke="#CCCCCC" stroke-linecap="round" stroke-linejoin="round" stroke-miterlimit="3" d="M81,508.8h547
			 M81,524h547 M81,539.2h547 M81,554.4h547 M81,569.6h547 M81,584.8h547 M81,600h547 M81,615.7h547 M81,478.3h547 M81,387.2h547
			 M81,235.1h547 M81,250.4h547 M81,265.5h547 M81,280.8h547 M81,295.9h547 M81,311.1h547 M81,326.3h547 M81,341.5h547 M81,204.7
			h547 M81,189.5h547 M81,174.3h547 M81,159.1h547 M81,143.9h547 M81,128.7h547 M81,113.5h547 M81,98.3h547 M81,463.2h547 M81,448
			h547 M81,432.8h547 M81,417.5h547 M81,402.3h547 M81,372h547"/>
	</g>
</g>
<g id="Layer_6">
	<g>
		<path fill="none" stroke="#CCCCCC" stroke-linecap="round" stroke-linejoin="round" stroke-miterlimit="3" d="M111.1,83v548.2
			 M95.5,83v548.2 M126.4,83v548.2 M172,83v548.2 M156.8,83v548.2 M187.2,83v548.2 M232.8,83v548.2 M217.6,83v548.2 M248,83v548.2
			 M278.4,83v548.2 M354.4,83v548.2 M339.3,83v548.2 M308.9,83v548.2 M293.6,83v548.2 M369.7,83v548.2 M400,83v548.2 M415.3,83
			v548.2 M430.5,83v548.2 M491.3,83v548.2 M476,83v548.2 M460.8,83v548.2 M521.7,83v548.2 M536.8,83v548.2 M552.1,83v548.2
			 M612.9,83v548.2 M597.7,83v548.2 M582.5,83v548.2"/>
	</g>
</g>
<g id="Layer_5">
	<g>
		<polyline fill="none" stroke="#999999" stroke-linecap="round" stroke-linejoin="round" stroke-miterlimit="3" points="81,67 
			81,630.7 647.8,630.7 		"/>
	</g>
</g>
<g id="Layer_4">
	<g>
		
			<polyline fill="none" stroke="#999999" stroke-width="1.3" stroke-linecap="round" stroke-linejoin="round" stroke-miterlimit="3" points="
			75.7,73.7 81,66.1 86.5,74.1 		"/>
	</g>
	<g>
		
			<polyline fill="none" stroke="#999999" stroke-width="1.3" stroke-linecap="round" stroke-linejoin="round" stroke-miterlimit="3" points="
			641.8,625.3 649.3,630.7 641.3,636.2 		"/>
	</g>
</g>
<g id="Layer_3">
	<g>
		<path fill="none" stroke="#999999" stroke-linecap="round" stroke-linejoin="round" stroke-miterlimit="3" d="M263.2,83.5v547.7
			 M202.4,83.5v547.7 M141.5,83.5v547.7 M384.8,83.5v547.7 M324,83.5v547.7 M506.5,83.5v547.7 M445.7,83.5v547.7 M567.3,83.5v547.7
			 M628.1,83.5v547.7"/>
	</g>
</g>
<g id="Layer_2">
	<g>
		<path fill="none" stroke="#999999" stroke-linecap="round" stroke-linejoin="round" stroke-miterlimit="3" d="M81,493.6h547
			 M81,220h547 M81,356.8h547 M81,83.1h547"/>
	</g>
</g>
<g id="Layer_1_1_">
	<path d="M66.5,622.2c-0.1,0.3-0.3,0.5-0.4,0.8l-1.8,2.6v0.1H67V623c0-0.3,0-0.5,0-0.8s0-0.5,0-0.8l0,0
		C66.8,621.7,66.7,621.9,66.5,622.2z M66.5,619.8h2.2v5.9H70v1.4h-1.3v2.5H67V627h-4.4v-1.2L66.5,619.8z M43.1,625L43.1,625
		l-2.8,1.3l-0.5-2.1l3.6-1.8h2.4v14.9H43V625H43.1z M50.8,630c0-1.6,0.2-2.9,0.6-4.1c0.4-1.1,1.1-2,1.9-2.7c0.8-0.6,1.8-1,3-1
		c1.2,0,2.2,0.3,3,1c0.8,0.6,1.4,1.5,1.8,2.6c0.4,1.2,0.5,2.5,0.5,4c0,1.6-0.2,3-0.6,4.2s-1,2.1-1.8,2.7c-0.8,0.6-1.8,0.9-3,0.9
		c-1.2,0-2.1-0.4-2.9-1c-0.8-0.6-1.4-1.5-1.8-2.6C51,632.8,50.8,631.5,50.8,630z M56.2,624.3c-0.8,0-1.4,0.5-1.9,1.4
		c-0.5,0.9-0.7,2.3-0.7,4.2c0,1.8,0.2,3.2,0.6,4.1c0.5,0.9,1.1,1.4,1.9,1.4c0.8,0,1.4-0.5,1.8-1.5s0.7-2.3,0.7-4.2
		c0-1.7-0.2-3.1-0.7-4C57.6,624.8,57,624.3,56.2,624.3z M64.1,479.8h5v1.5h-3.8l-0.3,1.9c0.1,0,0.2,0,0.3,0c0.1,0,0.3,0,0.4,0
		c0.4,0,0.9,0,1.3,0.1c0.4,0.1,0.8,0.3,1.1,0.5c0.4,0.2,0.7,0.6,0.9,1c0.2,0.4,0.4,0.9,0.4,1.5c0,0.6-0.1,1.2-0.4,1.7
		s-0.8,0.9-1.4,1.2s-1.3,0.5-2,0.5c-0.6,0-1.1-0.1-1.5-0.2c-0.5-0.1-0.8-0.3-1-0.4l0.3-1.4c0.2,0.1,0.5,0.3,0.9,0.3
		c0.4,0.1,0.8,0.2,1.3,0.2c0.4,0,0.7-0.1,1-0.2c0.3-0.1,0.6-0.3,0.8-0.6c0.2-0.3,0.3-0.6,0.3-1c0-0.6-0.2-1-0.6-1.4
		c-0.4-0.3-1.1-0.5-2.1-0.5c-0.3,0-0.5,0-0.8,0.1c-0.2,0-0.4,0-0.6,0L64.1,479.8z M51.4,485.8c0.4-1.1,1.1-2,1.9-2.7
		c0.8-0.6,1.8-1,3-1c1.2,0,2.2,0.3,3,1c0.8,0.6,1.4,1.5,1.8,2.6c0.4,1.2,0.5,2.5,0.5,4c0,1.6-0.2,3-0.6,4.2c-0.4,1.2-1,2.1-1.8,2.7
		c-0.8,0.6-1.8,0.9-3,0.9c-1.2,0-2.1-0.4-2.9-1c-0.8-0.6-1.4-1.5-1.8-2.6c-0.4-1.2-0.6-2.5-0.6-4C50.8,488.4,51,487,51.4,485.8z
		 M58,485.8c-0.4-1-1-1.5-1.8-1.5c-0.8,0-1.4,0.5-1.9,1.4c-0.5,0.9-0.7,2.3-0.7,4.2c0,1.8,0.2,3.2,0.6,4.1c0.5,0.9,1.1,1.4,1.9,1.4
		c0.8,0,1.4-0.5,1.8-1.5s0.7-2.3,0.7-4.2C58.7,488.1,58.5,486.8,58,485.8z M40.4,486.3l-0.5-2.1l3.6-1.8h2.4v14.9h-2.8V485H43
		L40.4,486.3z M56.2,353.3c-0.8,0-1.4,0.5-1.9,1.4c-0.5,0.9-0.7,2.3-0.7,4.2c0,1.8,0.2,3.2,0.6,4.1c0.5,0.9,1.1,1.4,1.9,1.4
		c0.8,0,1.4-0.5,1.8-1.5s0.7-2.3,0.7-4.2c0-1.7-0.2-3.1-0.7-4C57.6,353.8,57,353.3,56.2,353.3z M61,354.8c0.4,1.2,0.5,2.5,0.5,4
		c0,1.6-0.2,3-0.6,4.2s-1,2.1-1.8,2.7c-0.8,0.6-1.8,0.9-3,0.9c-1.2,0-2.1-0.4-2.9-1c-0.8-0.6-1.4-1.5-1.8-2.6
		c-0.4-1.2-0.6-2.5-0.6-4c0-1.6,0.2-2.9,0.6-4.1c0.4-1.1,1.1-2,1.9-2.7c0.8-0.6,1.8-1,3-1c1.2,0,2.2,0.3,3,1
		C60,352.8,60.6,353.7,61,354.8z M64.6,354.7c0,0.1,0,0.2,0,0.3c0,0.4,0.1,0.8,0.2,1.2c0.1,0.3,0.4,0.6,0.7,0.8s0.6,0.3,0.9,0.3
		c0.5,0,0.9-0.2,1.1-0.5c0.3-0.4,0.5-0.8,0.5-1.5c0-0.6-0.1-1-0.5-1.4c-0.3-0.3-0.7-0.5-1.3-0.5c-0.3,0-0.6,0.1-0.9,0.3
		c-0.3,0.2-0.5,0.4-0.6,0.8C64.7,354.5,64.6,354.5,64.6,354.7z M67.9,348.7c0.2,0,0.4-0.1,0.6-0.1c0.1,0,0.3,0,0.4,0v1.4
		c-0.1,0-0.3,0-0.5,0c-0.1,0-0.3,0-0.5,0.1c-0.7,0.1-1.2,0.3-1.7,0.5c-0.4,0.3-0.8,0.6-1.1,1c-0.3,0.4-0.4,0.8-0.5,1.3h0.1
		c0.2-0.3,0.5-0.5,0.9-0.7s0.8-0.3,1.3-0.3s1,0.1,1.5,0.4c0.4,0.3,0.8,0.6,1.1,1.1s0.4,1,0.4,1.7c0,0.6-0.1,1.2-0.5,1.7
		c-0.3,0.5-0.6,0.9-1.1,1.3c-0.5,0.3-1.1,0.5-1.8,0.5c-0.8,0-1.5-0.2-2-0.6c-0.6-0.4-1-0.8-1.3-1.4c-0.3-0.6-0.5-1.4-0.5-2.2
		c0-0.9,0.2-1.8,0.5-2.5c0.3-0.7,0.7-1.3,1.2-1.8c0.5-0.4,1-0.8,1.5-1C66.4,348.9,67.2,348.8,67.9,348.7z M40.4,355.3l-0.5-2.1
		l3.6-1.8h2.4v14.9h-2.8V354H43L40.4,355.3z M43.1,218L43.1,218l-2.8,1.4l-0.5-2.1l3.6-1.8h2.4v14.9H43V218H43.1z M58,218.8
		c-0.4-1-1-1.4-1.8-1.4c-0.8,0-1.4,0.5-1.9,1.4c-0.5,0.9-0.7,2.3-0.7,4.2c0,1.8,0.2,3.2,0.6,4.1c0.5,0.9,1.1,1.4,1.9,1.4
		c0.8,0,1.4-0.5,1.8-1.5s0.7-2.4,0.7-4.1C58.7,221.1,58.5,219.8,58,218.8z M53.3,216.1c0.8-0.6,1.8-0.9,3-0.9c1.2,0,2.2,0.3,3,1
		c0.8,0.6,1.4,1.5,1.8,2.6c0.4,1.2,0.5,2.5,0.5,3.9c0,1.6-0.2,3-0.6,4.2c-0.4,1.2-1,2.1-1.8,2.7c-0.8,0.6-1.8,1-3,1
		c-1.2,0-2.1-0.4-2.9-1c-0.8-0.6-1.4-1.5-1.8-2.6c-0.4-1.2-0.6-2.5-0.6-4c0-1.6,0.2-2.9,0.6-4.1C51.8,217.7,52.5,216.8,53.3,216.1z
		 M63.1,212.8h6.5v1.2l-4.1,8.5h-2l4.1-8.1h-4.5V212.8z M65.9,85.5c0.1,0.3,0.3,0.5,0.6,0.6c0.2,0.1,0.5,0.2,0.8,0.2
		c0.5,0,0.9-0.1,1.2-0.4c0.3-0.3,0.4-0.6,0.4-1.1s-0.1-0.9-0.4-1.1c-0.3-0.3-0.8-0.5-1.4-0.6c-0.4,0.1-0.8,0.4-1.1,0.6
		c-0.2,0.3-0.3,0.6-0.3,1C65.7,85.1,65.8,85.3,65.9,85.5z M70.1,79c0.2,0.4,0.4,0.8,0.4,1.1c0,0.3-0.1,0.8-0.4,1.2
		c-0.2,0.4-0.6,0.7-1.1,1v0.1c0.5,0.2,1,0.5,1.3,0.9c0.3,0.4,0.5,0.9,0.5,1.5c0,0.6-0.1,1.1-0.4,1.5c-0.3,0.4-0.7,0.8-1.3,1
		c-0.5,0.2-1.1,0.4-1.9,0.4c-0.8,0-1.4-0.1-1.9-0.4c-0.5-0.2-0.9-0.5-1.1-1c-0.3-0.4-0.4-0.8-0.4-1.3c0-0.6,0.2-1.1,0.5-1.5
		c0.3-0.4,0.8-0.8,1.4-1l0,0c-0.5-0.3-0.9-0.6-1.1-1c-0.2-0.4-0.4-0.8-0.4-1.2c0-0.5,0.1-1,0.5-1.4c0.3-0.4,0.6-0.7,1.1-0.9
		s1-0.4,1.6-0.4c0.7,0,1.3,0.1,1.7,0.4C69.6,78.2,69.9,78.5,70.1,79z M67.3,78.9c-0.5,0-0.8,0.2-1,0.4c-0.2,0.3-0.4,0.6-0.4,0.9
		c0,0.4,0.1,0.7,0.5,1c0.3,0.2,0.7,0.4,1.1,0.5c0.3-0.1,0.6-0.3,0.9-0.5c0.2-0.2,0.3-0.5,0.4-0.9c0-0.2-0.1-0.5-0.2-0.7
		c-0.1-0.2-0.3-0.4-0.4-0.5C67.9,79,67.6,78.9,67.3,78.9z M56.3,80.2c1.2,0,2.2,0.3,3,1c0.8,0.6,1.4,1.5,1.8,2.6
		c0.4,1.2,0.5,2.5,0.5,3.9c0,1.6-0.2,3-0.6,4.2c-0.4,1.2-1,2.1-1.8,2.7c-0.8,0.6-1.8,1-3,1c-1.2,0-2.1-0.4-2.9-1
		c-0.8-0.6-1.4-1.5-1.8-2.6c-0.4-1.2-0.6-2.5-0.6-4c0-1.6,0.2-2.9,0.6-4.1c0.4-1.1,1.1-2,1.9-2.7C54.1,80.5,55.1,80.2,56.3,80.2z
		 M58,83.8c-0.4-1-1-1.4-1.8-1.4c-0.8,0-1.4,0.5-1.9,1.4c-0.5,0.9-0.7,2.3-0.7,4.2c0,1.8,0.2,3.2,0.6,4.1c0.5,0.9,1.1,1.4,1.9,1.4
		c0.8,0,1.4-0.5,1.8-1.5s0.7-2.4,0.7-4.1C58.7,86.1,58.5,84.8,58,83.8z M40.4,84.4l-0.5-2.1l3.6-1.8h2.4v14.9h-2.8V83H43L40.4,84.4z
		"/>
	<g>
		<path d="M513.5,649.7c0.3,0.7,0.8,1,1.3,1c0.6,0,1.1-0.4,1.4-1.1c0.3-0.7,0.5-1.7,0.5-3.1c0-1.3-0.2-2.3-0.5-3s-0.8-1.1-1.5-1.1
			c-0.6,0-1,0.3-1.3,1c-0.3,0.7-0.5,1.7-0.5,3.1C513,648,513.1,649,513.5,649.7z M514.8,640.9c0.9,0,1.6,0.3,2.2,0.8s1,1.2,1.3,2
			s0.5,1.8,0.5,2.9c0,1.2-0.1,2.2-0.5,3.1c-0.3,0.8-0.8,1.5-1.4,1.9c-0.6,0.5-1.3,0.7-2.2,0.8c-0.8,0-1.5-0.3-2.2-0.8
			c-0.6-0.5-1-1.1-1.3-1.9c-0.3-0.9-0.5-1.9-0.5-3c0-1.1,0.2-2.1,0.5-3c0.3-0.9,0.8-1.5,1.4-2C513.3,641.2,514,640.9,514.8,640.9z
			 M502.8,642.5l2.7-1.4h1.8v11.1h-2V643l-2.1,1L502.8,642.5z M498.4,641.4c0.6,0.3,1,0.7,1.3,1.2s0.4,1.1,0.4,1.7
			c0,0.7-0.2,1.3-0.5,1.8c-0.3,0.6-0.7,1.1-1.1,1.7c-0.5,0.6-1.1,1.2-1.8,1.8l-1,0.9h4.5v1.8h-7.5V651l1.3-1.2
			c0.9-0.8,1.6-1.5,2.2-2.1c0.6-0.6,1-1.2,1.3-1.6c0.3-0.5,0.5-1,0.5-1.5c0-0.3-0.1-0.6-0.2-0.9c-0.1-0.3-0.3-0.5-0.7-0.6
			c-0.3-0.2-0.6-0.3-1.1-0.3s-0.9,0.1-1.3,0.3c-0.4,0.2-0.8,0.4-1.1,0.6L493,642c0.4-0.3,0.9-0.6,1.5-0.8s1.3-0.3,2-0.3
			S497.9,641.1,498.4,641.4z M559.4,641.4c0.6,0.3,1,0.7,1.3,1.2s0.4,1.1,0.4,1.7c0,0.7-0.2,1.3-0.5,1.8c-0.3,0.6-0.7,1.1-1.1,1.7
			c-0.5,0.6-1.1,1.2-1.8,1.8l-1,0.9h4.5v1.8h-7.5V651l1.3-1.2c0.9-0.8,1.6-1.5,2.2-2.1c0.6-0.6,1-1.2,1.3-1.6c0.3-0.5,0.5-1,0.5-1.5
			c0-0.3-0.1-0.6-0.2-0.9c-0.1-0.3-0.3-0.5-0.7-0.6c-0.3-0.2-0.6-0.3-1.1-0.3s-0.9,0.1-1.3,0.3c-0.4,0.2-0.8,0.4-1.1,0.6L554,642
			c0.4-0.3,0.9-0.6,1.5-0.8s1.3-0.3,2-0.3S558.9,641.1,559.4,641.4z M577.7,646.6c0-1.3-0.2-2.3-0.5-3c-0.3-0.7-0.8-1.1-1.5-1.1
			c-0.6,0-1,0.3-1.3,1c-0.3,0.7-0.5,1.7-0.5,3.1c0,1.3,0.2,2.3,0.5,3c0.3,0.7,0.8,1,1.3,1c0.6,0,1.1-0.4,1.4-1.1
			C577.5,649,577.7,647.9,577.7,646.6z M573.7,641.7c0.6-0.5,1.3-0.7,2.1-0.8c0.9,0,1.6,0.3,2.2,0.8s1,1.2,1.3,2s0.5,1.8,0.5,2.9
			c0,1.2-0.1,2.2-0.5,3.1c-0.3,0.8-0.8,1.5-1.4,1.9c-0.6,0.5-1.3,0.7-2.2,0.8c-0.8,0-1.5-0.3-2.2-0.8c-0.6-0.5-1-1.1-1.3-1.9
			c-0.3-0.9-0.5-1.9-0.5-3c0-1.1,0.2-2.1,0.5-3C572.6,642.8,573.1,642.1,573.7,641.7z M567.5,642.8L567.5,642.8
			c-0.2,0.3-0.4,0.7-0.5,1s-0.3,0.6-0.5,0.9l-2,3h3v-3c0-0.3,0-0.6,0-1C567.5,643.5,567.5,643.2,567.5,642.8z M567,641.1h2.5v6.7
			h1.5v1.6h-1.5v2.8h-2v-2.8h-5V648L567,641.1z M391.5,643.5c-0.3,0.7-0.5,1.7-0.5,3.1c0,1.3,0.2,2.3,0.5,3c0.3,0.7,0.8,1,1.3,1
			c0.6,0,1.1-0.4,1.4-1.1s0.5-1.7,0.5-3.1c0-1.3-0.2-2.3-0.5-3c-0.3-0.7-0.8-1.1-1.5-1.1C392.2,642.5,391.8,642.8,391.5,643.5z
			 M334.7,646.6c0-1.3-0.2-2.3-0.5-3c-0.3-0.7-0.8-1.1-1.5-1.1c-0.6,0-1,0.3-1.3,1c-0.3,0.7-0.5,1.7-0.5,3.1c0,1.3,0.2,2.3,0.5,3
			c0.3,0.7,0.8,1,1.3,1c0.6,0,1.1-0.4,1.4-1.1C334.5,649,334.7,647.9,334.7,646.6z M330.7,641.7c0.6-0.5,1.3-0.7,2.1-0.8
			c0.9,0,1.6,0.3,2.2,0.8s1,1.2,1.3,2c0.3,0.8,0.4,1.8,0.4,2.9c0,1.2-0.1,2.2-0.4,3.1c-0.3,0.8-0.8,1.5-1.4,1.9
			c-0.6,0.5-1.3,0.7-2.2,0.8c-0.8,0-1.5-0.3-2.1-0.8s-1-1.1-1.3-1.9c-0.3-0.9-0.4-1.9-0.4-3c0-1.1,0.1-2.1,0.4-3
			C329.6,642.8,330.1,642.1,330.7,641.7z M390.7,641.7c0.6-0.5,1.3-0.7,2.1-0.8c0.9,0,1.6,0.3,2.2,0.8s1,1.2,1.3,2s0.5,1.8,0.5,2.9
			c0,1.2-0.1,2.2-0.5,3.1c-0.3,0.8-0.8,1.5-1.4,1.9c-0.6,0.5-1.3,0.7-2.2,0.8c-0.8,0-1.5-0.3-2.2-0.8c-0.6-0.5-1-1.1-1.3-1.9
			c-0.3-0.9-0.5-1.9-0.5-3c0-1.1,0.2-2.1,0.5-3C389.6,642.8,390.1,642.1,390.7,641.7z M381.2,641.1h5.7v1.8h-4.3l-0.3,2.2
			c0.1,0,0.2,0,0.4,0c0.1,0,0.3,0,0.5,0c0.5,0,0.9,0,1.4,0.2c0.5,0.1,0.9,0.3,1.3,0.5c0.4,0.3,0.8,0.6,1,1.1c0.2,0.5,0.4,1,0.4,1.7
			c0,0.7-0.2,1.4-0.5,2c-0.4,0.6-0.9,1-1.5,1.3c-0.7,0.3-1.5,0.5-2.4,0.5c-0.7,0-1.3-0.1-1.8-0.2c-0.5-0.1-0.9-0.3-1.2-0.5l0.5-1.6
			c0.2,0.1,0.6,0.3,1,0.4c0.4,0.1,0.9,0.2,1.4,0.2c0.4,0,0.8-0.1,1.2-0.3c0.4-0.2,0.6-0.4,0.8-0.7s0.3-0.7,0.3-1.1
			c0-0.6-0.2-1.1-0.8-1.5c-0.5-0.4-1.3-0.6-2.4-0.6c-0.3,0-0.6,0-0.8,0c-0.2,0-0.5,0-0.7,0.1L381.2,641.1z M374.3,641.1h1.8v11.1h-2
			V643l-2,1l-0.3-1.5L374.3,641.1z M452.5,643.5c-0.3,0.7-0.5,1.7-0.5,3.1c0,1.3,0.2,2.3,0.5,3c0.3,0.7,0.8,1,1.3,1
			c0.6,0,1.1-0.4,1.4-1.1s0.5-1.7,0.5-3.1c0-1.3-0.2-2.3-0.5-3c-0.3-0.7-0.8-1.1-1.5-1.1C453.2,642.5,452.8,642.8,452.5,643.5z
			 M444.5,647.2c-0.5,0.1-0.9,0.4-1.2,0.8c-0.3,0.3-0.4,0.7-0.5,1.1c0,0.3,0.1,0.6,0.3,0.9c0.1,0.3,0.3,0.5,0.6,0.6
			c0.3,0.2,0.6,0.3,1,0.3c0.6,0,1-0.1,1.3-0.4s0.5-0.7,0.5-1.2c0-0.6-0.2-1-0.5-1.3C445.6,647.6,445.1,647.3,444.5,647.2z
			 M435.3,641.1h1.8v11.1h-2V643l-2,1l-0.3-1.5L435.3,641.1z M446.8,641.3c0.5,0.3,0.9,0.6,1.2,1.1c0.3,0.4,0.4,0.8,0.4,1.3
			s-0.1,0.9-0.4,1.4c-0.3,0.4-0.8,0.8-1.4,1.1l0,0c0.6,0.2,1.2,0.6,1.5,1c0.4,0.5,0.6,1,0.6,1.8c0,0.7-0.2,1.2-0.5,1.7
			s-0.8,0.9-1.4,1.2c-0.6,0.3-1.3,0.4-2.1,0.4c-0.9,0-1.6-0.2-2.2-0.4c-0.6-0.3-1-0.7-1.3-1.1c-0.3-0.5-0.5-1-0.5-1.5
			c0-0.7,0.2-1.3,0.5-1.8c0.4-0.5,0.9-0.8,1.5-1.1l0,0c-0.6-0.3-1-0.7-1.3-1.1c-0.3-0.4-0.5-0.8-0.5-1.3c0-0.6,0.2-1.1,0.5-1.6
			c0.3-0.4,0.8-0.8,1.3-1c0.6-0.2,1.2-0.4,1.9-0.4C445.6,640.9,446.3,641.1,446.8,641.3z M446.2,643.2c-0.1-0.2-0.3-0.4-0.6-0.6
			c-0.2-0.2-0.5-0.3-0.9-0.3c-0.5,0-0.9,0.2-1.2,0.5s-0.4,0.7-0.4,1c0,0.5,0.2,0.8,0.5,1.1c0.3,0.3,0.8,0.5,1.3,0.6
			c0.4-0.1,0.7-0.3,1-0.6c0.2-0.3,0.4-0.7,0.4-1.1C446.3,643.7,446.3,643.4,446.2,643.2z M453.8,640.9c0.9,0,1.6,0.3,2.2,0.8
			s1,1.2,1.3,2s0.5,1.8,0.5,2.9c0,1.2-0.1,2.2-0.5,3.1c-0.3,0.8-0.8,1.5-1.4,1.9c-0.6,0.5-1.3,0.7-2.2,0.8c-0.8,0-1.5-0.3-2.2-0.8
			c-0.6-0.5-1-1.1-1.3-1.9c-0.3-0.9-0.5-1.9-0.5-3c0-1.1,0.2-2.1,0.5-3c0.3-0.9,0.8-1.5,1.4-2C452.3,641.2,453,640.9,453.8,640.9z
			 M208.1,649.7c0.3-0.7,0.5-1.7,0.5-3.1c0-1.3-0.1-2.3-0.5-3c-0.3-0.7-0.8-1.1-1.4-1.1c-0.6,0-1,0.3-1.4,1
			c-0.3,0.7-0.5,1.7-0.5,3.1c0,1.3,0.2,2.3,0.5,3c0.3,0.7,0.8,1,1.4,1C207.3,650.7,207.8,650.3,208.1,649.7z M199.5,648.5
			c0-0.6-0.1-1.2-0.5-1.5c-0.3-0.4-0.8-0.6-1.4-0.7c-0.4,0-0.8,0.1-1.1,0.4c-0.3,0.2-0.6,0.5-0.8,0.8c0,0.1-0.1,0.2-0.1,0.3
			c0,0.1-0.1,0.2-0.1,0.3c0,0.5,0.1,1,0.3,1.4c0.2,0.4,0.4,0.7,0.7,1c0.3,0.2,0.7,0.3,1.1,0.3c0.5,0,1-0.2,1.3-0.6
			C199.4,649.7,199.5,649.2,199.5,648.5z M200.5,641v1.6c-0.1,0-0.3,0-0.5,0s-0.4,0-0.5,0.1c-0.8,0.1-1.4,0.3-2,0.6
			c-0.5,0.3-0.9,0.7-1.2,1.2c-0.3,0.5-0.5,0.9-0.5,1.4l0,0c0.3-0.3,0.6-0.5,1-0.8c0.4-0.2,0.9-0.3,1.5-0.3c0.7,0,1.3,0.1,1.8,0.4
			s0.9,0.7,1.2,1.3c0.3,0.5,0.4,1.2,0.4,2c0,0.7-0.2,1.3-0.5,1.9c-0.3,0.6-0.8,1.1-1.4,1.5c-0.6,0.3-1.3,0.5-2,0.5
			c-0.9,0-1.6-0.3-2.3-0.6c-0.6-0.4-1.1-1-1.5-1.7c-0.3-0.7-0.4-1.5-0.4-2.4c0-1.1,0.2-2.1,0.5-2.9c0.4-0.8,0.8-1.5,1.4-2.1
			c0.5-0.5,1.1-0.8,1.8-1.1c0.7-0.3,1.4-0.4,2.2-0.5c0.2,0,0.4,0,0.6,0C200.2,641,200.4,641,200.5,641z M206.8,640.9
			c0.9,0,1.6,0.3,2.2,0.8s1,1.2,1.3,2c0.3,0.8,0.5,1.8,0.5,2.9c0,1.2-0.2,2.2-0.5,3.1c-0.3,0.8-0.8,1.5-1.4,1.9
			c-0.6,0.5-1.3,0.7-2.2,0.8c-0.8,0-1.5-0.3-2.1-0.8s-1-1.1-1.3-1.9c-0.3-0.9-0.5-1.9-0.5-3c0-1.1,0.1-2.1,0.5-3
			c0.3-0.9,0.8-1.5,1.4-2C205.2,641.2,205.9,640.9,206.8,640.9z M269.6,646.6c0-1.3-0.1-2.3-0.5-3c-0.3-0.7-0.8-1.1-1.4-1.1
			c-0.6,0-1,0.3-1.4,1c-0.3,0.7-0.5,1.7-0.5,3.1c0,1.3,0.2,2.3,0.5,3c0.3,0.7,0.8,1,1.4,1c0.6,0,1.1-0.4,1.4-1.1
			C269.4,649,269.6,647.9,269.6,646.6z M255.1,642.9c0.3-0.6,0.8-1.1,1.4-1.4c0.6-0.4,1.3-0.6,2.1-0.6c0.9,0,1.6,0.3,2.1,0.6
			c0.6,0.4,1.1,1,1.4,1.7c0.3,0.7,0.5,1.5,0.5,2.5c0,1.2-0.2,2.2-0.6,3c-0.3,0.9-0.8,1.6-1.4,2.1c-0.5,0.5-1,0.8-1.7,1
			c-0.6,0.3-1.3,0.4-2.1,0.5c-0.2,0-0.5,0-0.7,0c-0.2,0-0.4,0-0.6,0v-1.6c0.1,0,0.3,0,0.5,0s0.4,0,0.6-0.1c0.4,0,0.8-0.1,1.2-0.3
			c0.4-0.1,0.7-0.3,1-0.6c0.3-0.3,0.6-0.6,0.9-1c0.2-0.4,0.4-0.9,0.5-1.4h-0.1c-0.3,0.3-0.6,0.6-1,0.8c-0.4,0.2-0.9,0.3-1.4,0.3
			c-0.6,0-1.2-0.1-1.8-0.5c-0.5-0.3-0.9-0.7-1.1-1.2c-0.3-0.5-0.5-1.1-0.5-1.8C254.6,644.2,254.8,643.5,255.1,642.9z M258.5,642.5
			c-0.5,0-1,0.3-1.3,0.6c-0.3,0.4-0.5,1-0.5,1.7c0,0.6,0.2,1,0.5,1.5c0.3,0.4,0.8,0.5,1.3,0.5c0.4,0,0.8-0.1,1.1-0.3
			c0.3-0.2,0.5-0.4,0.7-0.7c0-0.1,0-0.1,0-0.3c0-0.1,0.1-0.2,0.1-0.3c0-0.5-0.1-1-0.2-1.4c-0.1-0.4-0.3-0.7-0.6-1
			C259.4,642.6,259,642.5,258.5,642.5z M267.8,640.9c0.9,0,1.6,0.3,2.2,0.8s1,1.2,1.3,2c0.3,0.8,0.5,1.8,0.5,2.9
			c0,1.2-0.2,2.2-0.5,3.1c-0.3,0.8-0.8,1.5-1.4,1.9c-0.6,0.5-1.3,0.7-2.2,0.8c-0.8,0-1.5-0.3-2.1-0.8s-1-1.1-1.3-1.9
			c-0.3-0.9-0.5-1.9-0.5-3c0-1.1,0.1-2.1,0.5-3c0.3-0.9,0.8-1.5,1.4-2C266.2,641.2,266.9,640.9,267.8,640.9z M321.5,641.3
			c0.6-0.2,1.3-0.3,2-0.3c0.8,0,1.5,0.2,2,0.5c0.6,0.3,1,0.7,1.3,1.2c0.3,0.5,0.4,1.1,0.4,1.7c0,0.7-0.2,1.3-0.4,1.8
			c-0.3,0.6-0.7,1.1-1.2,1.7c-0.5,0.6-1.1,1.2-1.8,1.8l-0.9,0.9h4.5v1.8h-7.5v-1.3l1.3-1.2c0.9-0.8,1.6-1.5,2.1-2.1
			c0.6-0.6,1-1.2,1.3-1.6c0.3-0.5,0.4-1,0.4-1.5c0-0.3-0.1-0.6-0.2-0.9c-0.1-0.3-0.4-0.5-0.6-0.6c-0.3-0.2-0.7-0.3-1.2-0.3
			s-0.9,0.1-1.3,0.3c-0.4,0.2-0.8,0.4-1,0.6l-0.6-1.5C320.5,641.7,321,641.5,321.5,641.3z M314.4,641.1h1.8v11.1H314V643l-2,1
			l-0.4-1.5L314.4,641.1z M147.6,646.6c0-1.3-0.1-2.3-0.5-3c-0.3-0.7-0.8-1.1-1.4-1.1c-0.6,0-1,0.3-1.4,1c-0.3,0.7-0.5,1.7-0.5,3.1
			c0,1.3,0.2,2.3,0.5,3c0.3,0.7,0.8,1,1.4,1c0.6,0,1.1-0.4,1.4-1.1C147.4,649,147.6,647.9,147.6,646.6z M145.8,640.9
			c0.9,0,1.6,0.3,2.2,0.8s1,1.2,1.3,2c0.3,0.8,0.5,1.8,0.5,2.9c0,1.2-0.2,2.2-0.5,3.1c-0.3,0.8-0.8,1.5-1.4,1.9
			c-0.6,0.5-1.3,0.7-2.2,0.8c-0.8,0-1.5-0.3-2.1-0.8s-1-1.1-1.3-1.9c-0.3-0.9-0.5-1.9-0.5-3c0-1.1,0.1-2.1,0.5-3
			c0.3-0.9,0.8-1.5,1.4-2C144.2,641.2,144.9,640.9,145.8,640.9z M138.2,641.3c0.5,0.2,0.9,0.6,1.1,1c0.3,0.4,0.4,0.8,0.4,1.3
			c0,0.6-0.2,1.1-0.5,1.6c-0.4,0.5-0.9,0.8-1.5,1l0,0c0.5,0.1,0.9,0.2,1.2,0.5c0.4,0.3,0.7,0.6,0.9,1c0.2,0.4,0.3,0.8,0.4,1.3
			c0,0.6-0.2,1.2-0.5,1.7c-0.3,0.5-0.8,0.9-1.5,1.2c-0.6,0.3-1.4,0.4-2.3,0.4c-0.7,0-1.3-0.1-1.9-0.3c-0.5-0.2-1-0.3-1.3-0.5
			l0.5-1.5c0.2,0.1,0.6,0.3,1,0.4c0.4,0.2,0.9,0.3,1.5,0.3c0.5,0,0.9-0.1,1.3-0.3c0.3-0.2,0.6-0.4,0.8-0.7c0.1-0.3,0.2-0.5,0.2-0.8
			c0-0.4-0.1-0.8-0.4-1.1c-0.2-0.3-0.6-0.5-1-0.6c-0.4-0.1-0.8-0.2-1.2-0.2h-1v-1.5h0.9c0.3,0,0.7,0,1-0.2c0.3-0.1,0.6-0.3,0.9-0.5
			c0.3-0.2,0.4-0.5,0.4-0.9c0-0.4-0.1-0.7-0.4-1c-0.3-0.3-0.8-0.4-1.4-0.4c-0.5,0-0.9,0.1-1.3,0.2c-0.4,0.2-0.7,0.3-0.9,0.5
			l-0.5-1.5c0.3-0.2,0.8-0.4,1.4-0.5c0.6-0.2,1.2-0.3,1.8-0.3C137.1,640.9,137.7,641.1,138.2,641.3z"/>
	</g>
</g>
</svg>
