<?xml version="1.0" encoding="utf-8"?>
<!-- Generator: Adobe Illustrator 16.0.0, SVG Export Plug-In . SVG Version: 6.00 Build 0)  -->
<!DOCTYPE svg PUBLIC "-//W3C//DTD SVG 1.1//EN" "http://www.w3.org/Graphics/SVG/1.1/DTD/svg11.dtd">
<svg version="1.1" id="Layer_1" xmlns="http://www.w3.org/2000/svg" xmlns:xlink="http://www.w3.org/1999/xlink" x="0px" y="0px"
	 width="700px" height="700px" viewBox="0 0 700 700" enable-background="new 0 0 700 700" xml:space="preserve">
<g id="Layer_13">
	<g>
		<path fill="none" stroke="#CCCCCC" stroke-linecap="round" stroke-linejoin="round" stroke-miterlimit="3" d="M81,508.8h547
			 M81,524h547 M81,539.2h547 M81,554.4h547 M81,569.6h547 M81,584.8h547 M81,600h547 M81,615.7h547 M81,478.3h547 M81,387.2h547
			 M81,235.1h547 M81,250.4h547 M81,265.5h547 M81,280.8h547 M81,295.9h547 M81,311.1h547 M81,326.3h547 M81,341.5h547 M81,204.7
			h547 M81,189.5h547 M81,174.3h547 M81,159.1h547 M81,143.9h547 M81,128.7h547 M81,113.5h547 M81,98.3h547 M81,463.2h547 M81,448
			h547 M81,432.8h547 M81,417.5h547 M81,402.3h547 M81,372h547"/>
	</g>
</g>
<g id="Layer_12">
	<g>
		<path fill="none" stroke="#CCCCCC" stroke-linecap="round" stroke-linejoin="round" stroke-miterlimit="3" d="M111.1,83v548.2
			 M95.5,83v548.2 M126.4,83v548.2 M172,83v548.2 M156.8,83v548.2 M187.2,83v548.2 M232.8,83v548.2 M217.6,83v548.2 M248,83v548.2
			 M278.4,83v548.2 M354.4,83v548.2 M339.3,83v548.2 M308.9,83v548.2 M293.6,83v548.2 M369.7,83v548.2 M400,83v548.2 M415.3,83
			v548.2 M430.5,83v548.2 M491.3,83v548.2 M476,83v548.2 M460.8,83v548.2 M521.7,83v548.2 M536.8,83v548.2 M552.1,83v548.2
			 M612.9,83v548.2 M597.7,83v548.2 M582.5,83v548.2"/>
	</g>
</g>
<g id="Layer_11">
	<g>
		<polyline fill="none" stroke="#999999" stroke-linecap="round" stroke-linejoin="round" stroke-miterlimit="3" points="81,67 
			81,630.7 647.8,630.7 		"/>
	</g>
</g>
<g id="Layer_10">
	<g>
		
			<polyline fill="none" stroke="#999999" stroke-width="1.3" stroke-linecap="round" stroke-linejoin="round" stroke-miterlimit="3" points="
			75.7,73.7 81,66.1 86.5,74.1 		"/>
	</g>
	<g>
		
			<polyline fill="none" stroke="#999999" stroke-width="1.3" stroke-linecap="round" stroke-linejoin="round" stroke-miterlimit="3" points="
			641.8,625.3 649.3,630.7 641.3,636.2 		"/>
	</g>
</g>
<g id="Layer_9">
	<g>
		<path fill="none" stroke="#999999" stroke-linecap="round" stroke-linejoin="round" stroke-miterlimit="3" d="M263.2,83.5v547.7
			 M202.4,83.5v547.7 M141.5,83.5v547.7 M384.8,83.5v547.7 M324,83.5v547.7 M506.5,83.5v547.7 M445.7,83.5v547.7 M567.3,83.5v547.7
			 M628.1,83.5v547.7"/>
	</g>
</g>
<g id="Layer_8">
	<g>
		<path fill="none" stroke="#999999" stroke-linecap="round" stroke-linejoin="round" stroke-miterlimit="3" d="M81,493.6h547
			 M81,220h547 M81,356.8h547 M81,83.1h547"/>
	</g>
</g>
<g id="Layer_7">
	<g>
		<path d="M513.5,643.5c-0.3,0.7-0.5,1.7-0.5,3.1c0,1.3,0.2,2.3,0.5,3c0.3,0.7,0.8,1,1.3,1c0.6,0,1.1-0.4,1.4-1.1s0.5-1.7,0.5-3.1
			c0-1.3-0.2-2.3-0.5-3c-0.3-0.7-0.8-1.1-1.5-1.1C514.2,642.5,513.8,642.8,513.5,643.5z M512.7,641.7c0.6-0.5,1.3-0.7,2.1-0.8
			c0.9,0,1.6,0.3,2.2,0.8s1,1.2,1.3,2s0.5,1.8,0.5,2.9c0,1.2-0.1,2.2-0.5,3.1c-0.3,0.8-0.8,1.5-1.4,1.9c-0.6,0.5-1.3,0.7-2.2,0.8
			c-0.8,0-1.5-0.3-2.2-0.8c-0.6-0.5-1-1.1-1.3-1.9c-0.3-0.9-0.5-1.9-0.5-3c0-1.1,0.2-2.1,0.5-3C511.6,642.8,512.1,642.1,512.7,641.7
			z M506.5,642.8L506.5,642.8c-0.2,0.3-0.4,0.7-0.5,1s-0.3,0.6-0.5,0.9l-2,3h3v-3c0-0.3,0-0.6,0-1
			C506.5,643.5,506.5,643.2,506.5,642.8z M506,641.1h2.5v6.7h1.5v1.6h-1.5v2.8h-2v-2.8h-5V648L506,641.1z M496.3,641.1h1.8v11.1h-2
			V643l-2,1l-0.3-1.5L496.3,641.1z M557.3,641.1h1.8v11.1h-2V643l-2,1l-0.3-1.5L557.3,641.1z M628.5,649.2c0-0.6-0.2-1-0.5-1.3
			c-0.4-0.3-0.9-0.6-1.5-0.8c-0.5,0.1-0.9,0.4-1.2,0.8c-0.3,0.3-0.4,0.7-0.5,1.1c0,0.3,0.1,0.6,0.3,0.9c0.1,0.3,0.3,0.5,0.6,0.6
			c0.3,0.2,0.6,0.3,1,0.3c0.6,0,1-0.1,1.3-0.4C628.4,650.1,628.5,649.7,628.5,649.2z M637.2,649.7c0.3-0.7,0.5-1.7,0.5-3.1
			c0-1.3-0.2-2.3-0.5-3c-0.3-0.7-0.8-1.1-1.5-1.1c-0.6,0-1,0.3-1.3,1c-0.3,0.7-0.5,1.7-0.5,3.1c0,1.3,0.2,2.3,0.5,3
			c0.3,0.7,0.8,1,1.3,1C636.4,650.7,636.9,650.3,637.2,649.7z M568.6,648.5c0-0.6-0.1-1.2-0.4-1.5c-0.3-0.4-0.8-0.6-1.5-0.7
			c-0.4,0-0.8,0.1-1,0.4c-0.3,0.2-0.6,0.5-0.8,0.8c0,0.1-0.1,0.2-0.1,0.3c0,0.1,0,0.2,0,0.3c0,0.5,0.1,1,0.3,1.4
			c0.2,0.4,0.4,0.7,0.7,1s0.7,0.3,1.1,0.3c0.5,0,1-0.2,1.3-0.6C568.5,649.7,568.6,649.2,568.6,648.5z M577.2,649.7
			c0.3-0.7,0.5-1.7,0.5-3.1c0-1.3-0.2-2.3-0.5-3c-0.3-0.7-0.8-1.1-1.5-1.1c-0.6,0-1,0.3-1.3,1c-0.3,0.7-0.5,1.7-0.5,3.1
			c0,1.3,0.2,2.3,0.5,3c0.3,0.7,0.8,1,1.3,1C576.4,650.7,576.9,650.3,577.2,649.7z M569.2,641c0.2,0,0.3,0,0.4,0v1.6
			c-0.1,0-0.3,0-0.5,0c-0.2,0-0.3,0-0.5,0.1c-0.8,0.1-1.4,0.3-2,0.6c-0.5,0.3-0.9,0.7-1.2,1.2c-0.3,0.5-0.5,0.9-0.6,1.4h0.1
			c0.3-0.3,0.6-0.5,1-0.8c0.4-0.2,0.9-0.3,1.4-0.3c0.7,0,1.3,0.1,1.8,0.4s0.9,0.7,1.2,1.3s0.5,1.2,0.5,2c0,0.7-0.2,1.3-0.5,1.9
			c-0.3,0.6-0.8,1.1-1.3,1.5c-0.6,0.3-1.3,0.5-2.1,0.5c-0.9,0-1.6-0.3-2.3-0.6c-0.6-0.4-1.1-1-1.4-1.7c-0.3-0.7-0.5-1.5-0.5-2.4
			c0-1.1,0.2-2.1,0.5-2.9c0.4-0.8,0.8-1.5,1.4-2.1c0.5-0.5,1.1-0.8,1.8-1.1c0.7-0.3,1.4-0.4,2.2-0.5C568.8,641,569,641,569.2,641z
			 M575.8,640.9c0.9,0,1.6,0.3,2.2,0.8s1,1.2,1.3,2s0.5,1.8,0.5,2.9c0,1.2-0.1,2.2-0.5,3.1c-0.3,0.8-0.8,1.5-1.4,1.9
			c-0.6,0.5-1.3,0.7-2.2,0.8c-0.8,0-1.5-0.3-2.2-0.8c-0.6-0.5-1-1.1-1.3-1.9c-0.3-0.9-0.5-1.9-0.5-3c0-1.1,0.2-2.1,0.5-3
			c0.3-0.9,0.8-1.5,1.4-2C574.3,641.2,575,640.9,575.8,640.9z M635.8,640.9c0.9,0,1.6,0.3,2.2,0.8s1,1.2,1.3,2s0.5,1.8,0.5,2.9
			c0,1.2-0.1,2.2-0.5,3.1c-0.3,0.8-0.8,1.5-1.4,1.9c-0.6,0.5-1.3,0.7-2.2,0.8c-0.8,0-1.5-0.3-2.2-0.8c-0.6-0.5-1-1.1-1.3-1.9
			c-0.3-0.9-0.5-1.9-0.5-3c0-1.1,0.2-2.1,0.5-3c0.3-0.9,0.8-1.5,1.4-2C634.3,641.2,635,640.9,635.8,640.9z M627.6,642.6
			c-0.2-0.2-0.5-0.3-0.9-0.3c-0.5,0-0.9,0.2-1.2,0.5s-0.4,0.7-0.4,1c0,0.5,0.2,0.8,0.5,1.1c0.3,0.3,0.8,0.5,1.3,0.6
			c0.4-0.1,0.7-0.3,1-0.6c0.2-0.3,0.4-0.7,0.4-1.1c0-0.2,0-0.5-0.1-0.7C628,643,627.8,642.8,627.6,642.6z M624.9,641.3
			c0.6-0.2,1.2-0.4,1.9-0.4c0.8,0,1.5,0.2,2,0.4c0.5,0.3,0.9,0.6,1.2,1.1c0.3,0.4,0.4,0.8,0.4,1.3s-0.1,0.9-0.4,1.4
			c-0.3,0.4-0.8,0.8-1.4,1.1l0,0c0.6,0.2,1.2,0.6,1.5,1c0.4,0.5,0.6,1,0.6,1.8c0,0.7-0.2,1.2-0.5,1.7s-0.8,0.9-1.4,1.2
			c-0.6,0.3-1.3,0.4-2.1,0.4c-0.9,0-1.6-0.2-2.2-0.4c-0.6-0.3-1-0.7-1.3-1.1c-0.3-0.5-0.5-1-0.5-1.5c0-0.7,0.2-1.3,0.5-1.8
			c0.4-0.5,0.9-0.8,1.5-1.1l0,0c-0.6-0.3-1-0.7-1.3-1.1c-0.3-0.4-0.5-0.8-0.5-1.3c0-0.6,0.2-1.1,0.5-1.6
			C623.9,641.9,624.4,641.6,624.9,641.3z M614.7,642.5l2.7-1.4h1.8v11.1h-2V643l-2,1L614.7,642.5z M385.1,649.7
			c0.3-0.7,0.5-1.7,0.5-3.1c0-1.3-0.1-2.3-0.4-3c-0.3-0.7-0.8-1.1-1.5-1.1c-0.6,0-1,0.3-1.4,1c-0.3,0.7-0.5,1.7-0.5,3.1
			c0,1.3,0.2,2.3,0.5,3c0.3,0.7,0.8,1,1.4,1C384.3,650.7,384.8,650.3,385.1,649.7z M391.5,643.5c-0.3,0.7-0.5,1.7-0.5,3.1
			c0,1.3,0.2,2.3,0.5,3c0.3,0.7,0.8,1,1.3,1c0.6,0,1.1-0.4,1.4-1.1s0.5-1.7,0.5-3.1c0-1.3-0.2-2.3-0.5-3c-0.3-0.7-0.8-1.1-1.5-1.1
			C392.2,642.5,391.8,642.8,391.5,643.5z M331.2,649.7c0.3-0.7,0.5-1.7,0.5-3.1c0-1.3-0.2-2.3-0.5-3c-0.3-0.7-0.8-1.1-1.5-1.1
			c-0.6,0-1,0.3-1.3,1c-0.3,0.7-0.5,1.7-0.5,3.1c0,1.3,0.2,2.3,0.5,3c0.3,0.7,0.8,1,1.3,1C330.4,650.7,330.9,650.3,331.2,649.7z
			 M329.9,640.9c0.9,0,1.6,0.3,2.2,0.8s1,1.2,1.3,2c0.3,0.8,0.4,1.8,0.4,2.9c0,1.2-0.1,2.2-0.4,3.1c-0.3,0.8-0.8,1.5-1.4,1.9
			c-0.6,0.5-1.3,0.7-2.2,0.8c-0.8,0-1.5-0.3-2.1-0.8c-0.6-0.5-1-1.1-1.3-1.9c-0.3-0.9-0.4-1.9-0.4-3c0-1.1,0.1-2.1,0.4-3
			c0.3-0.9,0.8-1.5,1.4-2C328.3,641.2,329,640.9,329.9,640.9z M390.7,641.7c0.6-0.5,1.3-0.7,2.1-0.8c0.9,0,1.6,0.3,2.2,0.8
			s1,1.2,1.3,2s0.5,1.8,0.5,2.9c0,1.2-0.1,2.2-0.5,3.1c-0.3,0.8-0.8,1.5-1.4,1.9c-0.6,0.5-1.3,0.7-2.2,0.8c-0.8,0-1.5-0.3-2.2-0.8
			c-0.6-0.5-1-1.1-1.3-1.9c-0.3-0.9-0.5-1.9-0.5-3c0-1.1,0.2-2.1,0.5-3C389.6,642.8,390.1,642.1,390.7,641.7z M381.6,641.7
			c0.6-0.5,1.3-0.7,2.2-0.8c0.9,0,1.6,0.3,2.2,0.8s1,1.2,1.3,2s0.5,1.8,0.5,2.9c0,1.2-0.2,2.2-0.5,3.1c-0.3,0.8-0.8,1.5-1.4,1.9
			c-0.6,0.5-1.3,0.7-2.2,0.8c-0.8,0-1.6-0.3-2.2-0.8s-1-1.1-1.3-1.9c-0.3-0.9-0.5-1.9-0.5-3c0-1.1,0.2-2.1,0.5-3
			C380.5,642.8,381,642.1,381.6,641.7z M374.3,641.1h1.8v11.1h-2V643l-2,1l-0.3-1.5L374.3,641.1z M452.5,643.5
			c-0.3,0.7-0.5,1.7-0.5,3.1c0,1.3,0.2,2.3,0.5,3c0.3,0.7,0.8,1,1.3,1c0.6,0,1.1-0.4,1.4-1.1s0.5-1.7,0.5-3.1c0-1.3-0.2-2.3-0.5-3
			c-0.3-0.7-0.8-1.1-1.5-1.1C453.2,642.5,452.8,642.8,452.5,643.5z M435.3,641.1h1.8v11.1h-2V643l-2,1l-0.3-1.5L435.3,641.1z
			 M451.7,641.7c0.6-0.5,1.3-0.7,2.1-0.8c0.9,0,1.6,0.3,2.2,0.8s1,1.2,1.3,2s0.5,1.8,0.5,2.9c0,1.2-0.1,2.2-0.5,3.1
			c-0.3,0.8-0.8,1.5-1.4,1.9c-0.6,0.5-1.3,0.7-2.2,0.8c-0.8,0-1.5-0.3-2.2-0.8c-0.6-0.5-1-1.1-1.3-1.9c-0.3-0.9-0.5-1.9-0.5-3
			c0-1.1,0.2-2.1,0.5-3C450.6,642.8,451.1,642.1,451.7,641.7z M446.5,641.4c0.6,0.3,1,0.7,1.3,1.2s0.4,1.1,0.4,1.7
			c0,0.7-0.2,1.3-0.5,1.8c-0.3,0.6-0.7,1.1-1.2,1.7c-0.5,0.6-1.1,1.2-1.8,1.8l-1,0.9h4.6v1.8h-7.5V651l1.3-1.2
			c0.9-0.8,1.6-1.5,2.1-2.1c0.6-0.6,1-1.2,1.3-1.6c0.3-0.5,0.5-1,0.5-1.5c0-0.3-0.1-0.6-0.2-0.9c-0.1-0.3-0.3-0.5-0.6-0.6
			c-0.3-0.2-0.7-0.3-1.2-0.3s-0.9,0.1-1.3,0.3c-0.4,0.2-0.8,0.4-1,0.6l-0.6-1.5c0.4-0.3,0.9-0.6,1.5-0.8c0.6-0.2,1.3-0.3,2-0.3
			C445.3,640.9,446,641.1,446.5,641.4z M208.1,649.7c0.3-0.7,0.5-1.7,0.5-3.1c0-1.3-0.1-2.3-0.5-3c-0.3-0.7-0.8-1.1-1.4-1.1
			c-0.6,0-1,0.3-1.4,1c-0.3,0.7-0.5,1.7-0.5,3.1c0,1.3,0.2,2.3,0.5,3c0.3,0.7,0.8,1,1.4,1C207.3,650.7,207.8,650.3,208.1,649.7z
			 M198.5,642.8L198.5,642.8c-0.2,0.3-0.4,0.7-0.6,1c-0.2,0.3-0.3,0.6-0.5,0.9l-2,3h3v-3c0-0.3,0-0.6,0-1
			C198.4,643.5,198.4,643.2,198.5,642.8z M197.9,641.1h2.5v6.7h1.4v1.6h-1.4v2.8h-2v-2.8h-5V648L197.9,641.1z M204.6,641.7
			c0.6-0.5,1.3-0.7,2.1-0.8c0.9,0,1.6,0.3,2.2,0.8s1,1.2,1.3,2c0.3,0.8,0.5,1.8,0.5,2.9c0,1.2-0.2,2.2-0.5,3.1
			c-0.3,0.8-0.8,1.5-1.4,1.9c-0.6,0.5-1.3,0.7-2.2,0.8c-0.8,0-1.5-0.3-2.1-0.8s-1-1.1-1.3-1.9c-0.3-0.9-0.5-1.9-0.5-3
			c0-1.1,0.1-2.1,0.5-3C203.5,642.8,204,642.1,204.6,641.7z M320.5,647.2c-0.5,0.1-0.9,0.4-1.2,0.8c-0.3,0.3-0.4,0.7-0.4,1.1
			c0,0.3,0.1,0.6,0.3,0.9c0.1,0.3,0.3,0.5,0.6,0.6c0.3,0.2,0.6,0.3,1,0.3c0.6,0,1-0.1,1.3-0.4c0.3-0.3,0.5-0.7,0.5-1.2
			c0-0.6-0.2-1-0.5-1.3C321.6,647.6,321.1,647.3,320.5,647.2z M260,647c-0.3-0.4-0.8-0.6-1.4-0.7c-0.4,0-0.8,0.1-1.1,0.4
			c-0.3,0.2-0.6,0.5-0.8,0.8c0,0.1-0.1,0.2-0.1,0.3c0,0.1-0.1,0.2-0.1,0.3c0,0.5,0.1,1,0.3,1.4c0.2,0.4,0.4,0.7,0.7,1
			c0.3,0.2,0.7,0.3,1.1,0.3c0.5,0,1-0.2,1.3-0.6c0.3-0.4,0.5-1,0.5-1.7C260.5,647.9,260.4,647.3,260,647z M269.6,646.6
			c0-1.3-0.1-2.3-0.5-3c-0.3-0.7-0.8-1.1-1.4-1.1c-0.6,0-1,0.3-1.4,1c-0.3,0.7-0.5,1.7-0.5,3.1c0,1.3,0.2,2.3,0.5,3
			c0.3,0.7,0.8,1,1.4,1c0.6,0,1.1-0.4,1.4-1.1C269.4,649,269.6,647.9,269.6,646.6z M265.6,641.7c0.6-0.5,1.3-0.7,2.1-0.8
			c0.9,0,1.6,0.3,2.2,0.8s1,1.2,1.3,2c0.3,0.8,0.5,1.8,0.5,2.9c0,1.2-0.2,2.2-0.5,3.1c-0.3,0.8-0.8,1.5-1.4,1.9
			c-0.6,0.5-1.3,0.7-2.2,0.8c-0.8,0-1.5-0.3-2.1-0.8s-1-1.1-1.3-1.9c-0.3-0.9-0.5-1.9-0.5-3c0-1.1,0.1-2.1,0.5-3
			C264.5,642.8,265,642.1,265.6,641.7z M261,641c0.2,0,0.3,0,0.5,0v1.6c-0.1,0-0.3,0-0.5,0s-0.4,0-0.5,0.1c-0.8,0.1-1.4,0.3-2,0.6
			c-0.5,0.3-0.9,0.7-1.2,1.2c-0.3,0.5-0.5,0.9-0.5,1.4l0,0c0.3-0.3,0.6-0.5,1-0.8c0.4-0.2,0.9-0.3,1.5-0.3c0.7,0,1.3,0.1,1.8,0.4
			s0.9,0.7,1.2,1.3c0.3,0.5,0.4,1.2,0.4,2c0,0.7-0.2,1.3-0.5,1.9c-0.3,0.6-0.8,1.1-1.4,1.5c-0.6,0.3-1.3,0.5-2,0.5
			c-0.9,0-1.6-0.3-2.3-0.6c-0.6-0.4-1.1-1-1.5-1.7c-0.3-0.7-0.4-1.5-0.4-2.4c0-1.1,0.2-2.1,0.5-2.9c0.4-0.8,0.8-1.5,1.4-2.1
			c0.5-0.5,1.1-0.8,1.8-1.1c0.7-0.3,1.4-0.4,2.2-0.5C260.7,641,260.9,641,261,641z M317.6,642.3c0.3-0.4,0.8-0.8,1.3-1
			c0.6-0.2,1.2-0.4,1.9-0.4c0.8,0,1.5,0.2,2,0.4c0.5,0.3,0.9,0.6,1.1,1.1c0.3,0.4,0.4,0.8,0.4,1.3s-0.1,0.9-0.4,1.4
			c-0.3,0.4-0.8,0.8-1.4,1.1l0,0c0.6,0.2,1.2,0.6,1.6,1c0.4,0.5,0.6,1,0.6,1.8c0,0.7-0.2,1.2-0.6,1.7c-0.3,0.5-0.8,0.9-1.4,1.2
			c-0.6,0.3-1.3,0.4-2.1,0.4c-0.9,0-1.6-0.2-2.1-0.4c-0.6-0.3-1-0.7-1.3-1.1c-0.3-0.5-0.5-1-0.5-1.5c0-0.7,0.2-1.3,0.5-1.8
			c0.4-0.5,0.9-0.8,1.5-1.1l0,0c-0.6-0.3-1-0.7-1.3-1.1c-0.3-0.4-0.4-0.8-0.4-1.3C317.1,643.3,317.3,642.8,317.6,642.3z
			 M320.7,642.3c-0.5,0-0.9,0.2-1.2,0.5s-0.4,0.7-0.4,1c0,0.5,0.2,0.8,0.5,1.1c0.3,0.3,0.8,0.5,1.3,0.6c0.4-0.1,0.7-0.3,1-0.6
			c0.2-0.3,0.4-0.7,0.4-1.1c0-0.2,0-0.5-0.1-0.7c-0.1-0.2-0.3-0.4-0.5-0.6C321.4,642.4,321.1,642.3,320.7,642.3z M147.6,646.6
			c0-1.3-0.1-2.3-0.5-3c-0.3-0.7-0.8-1.1-1.4-1.1c-0.6,0-1,0.3-1.4,1c-0.3,0.7-0.5,1.7-0.5,3.1c0,1.3,0.2,2.3,0.5,3
			c0.3,0.7,0.8,1,1.4,1c0.6,0,1.1-0.4,1.4-1.1C147.4,649,147.6,647.9,147.6,646.6z M137.1,642.9c-0.3-0.2-0.6-0.3-1.1-0.3
			s-0.9,0.1-1.3,0.3c-0.4,0.2-0.8,0.4-1,0.6L133,642c0.4-0.3,0.9-0.6,1.5-0.8s1.3-0.3,1.9-0.3c0.8,0,1.5,0.2,2,0.5
			c0.6,0.3,1,0.7,1.3,1.2c0.3,0.5,0.4,1.1,0.4,1.7c0,0.7-0.2,1.3-0.4,1.8c-0.3,0.6-0.7,1.1-1.1,1.7c-0.5,0.6-1.1,1.2-1.8,1.8l-1,0.9
			h4.5v1.8h-7.5V651l1.3-1.2c0.9-0.8,1.6-1.5,2.1-2.1c0.6-0.6,1-1.2,1.3-1.6c0.3-0.5,0.5-1,0.5-1.5c0-0.3-0.1-0.6-0.2-0.9
			C137.7,643.4,137.4,643.1,137.1,642.9z M145.8,640.9c0.9,0,1.6,0.3,2.2,0.8s1,1.2,1.3,2c0.3,0.8,0.5,1.8,0.5,2.9
			c0,1.2-0.2,2.2-0.5,3.1c-0.3,0.8-0.8,1.5-1.4,1.9c-0.6,0.5-1.3,0.7-2.2,0.8c-0.8,0-1.5-0.3-2.1-0.8s-1-1.1-1.3-1.9
			c-0.3-0.9-0.5-1.9-0.5-3c0-1.1,0.1-2.1,0.5-3c0.3-0.9,0.8-1.5,1.4-2C144.2,641.2,144.9,640.9,145.8,640.9z"/>
	</g>
	<g>
		<path d="M66,619.7c0.7,0,1.2,0.1,1.7,0.3c0.4,0.2,0.8,0.5,1,0.8c0.2,0.3,0.3,0.7,0.3,1.2s-0.1,1-0.4,1.3c-0.3,0.4-0.8,0.7-1.4,1
			c0.4,0.1,0.8,0.2,1.1,0.5c0.3,0.2,0.5,0.5,0.8,0.8c0.2,0.3,0.3,0.7,0.3,1.2c0,0.6-0.1,1.1-0.4,1.5c-0.3,0.4-0.7,0.8-1.3,1
			c-0.6,0.3-1.3,0.4-2,0.4c-0.6,0-1.1-0.1-1.6-0.2s-0.8-0.3-1.1-0.5l0.4-1.4c0.2,0.1,0.5,0.3,0.9,0.4c0.4,0.1,0.8,0.2,1.3,0.2
			s0.8-0.1,1.1-0.3c0.3-0.1,0.5-0.3,0.6-0.5c0.1-0.2,0.2-0.5,0.2-0.8c0-0.4-0.1-0.7-0.4-1c-0.2-0.2-0.5-0.4-0.8-0.5
			c-0.3-0.1-0.7-0.2-1.1-0.2h-0.8v-1.3h0.8c0.3,0,0.6,0,0.9-0.1c0.3-0.1,0.6-0.3,0.8-0.5c0.2-0.2,0.3-0.5,0.3-0.8s-0.1-0.6-0.4-0.8
			c-0.3-0.2-0.6-0.4-1.1-0.4c-0.4,0-0.8,0.1-1.1,0.2c-0.4,0.1-0.6,0.3-0.9,0.4l-0.4-1.3c0.3-0.2,0.6-0.4,1.1-0.6
			C64.9,619.7,65.4,619.7,66,619.7z M43.1,625L43.1,625l-2.8,1.3l-0.5-2.1l3.6-1.8h2.4v14.9H43V625H43.1z M54.4,625.8
			c-0.5,0.9-0.7,2.3-0.7,4.2c0,1.8,0.2,3.2,0.6,4.1c0.5,0.9,1.1,1.4,1.9,1.4c0.8,0,1.4-0.5,1.8-1.4V634c0.4-1,0.7-2.3,0.7-4.2
			c0-1.7-0.2-3.1-0.7-4v-0.1c-0.4-0.9-1-1.3-1.8-1.3C55.4,624.3,54.8,624.8,54.4,625.8z M58,622.5c0.4,0.2,0.8,0.4,1.2,0.7
			c0.8,0.6,1.4,1.5,1.8,2.6c0.4,1.2,0.5,2.5,0.5,4c0,1.6-0.2,3-0.6,4.2s-1,2.1-1.8,2.7c-0.3,0.3-0.7,0.5-1.1,0.6
			c-0.6,0.2-1.2,0.3-1.9,0.3c-1.2,0-2.1-0.4-2.9-1c-0.8-0.6-1.4-1.5-1.8-2.6c-0.4-1.2-0.6-2.5-0.6-4c0-1.6,0.2-2.9,0.6-4.1
			c0.4-1.1,1.1-2,1.9-2.7c0.8-0.6,1.8-1,3-1C56.9,622.2,57.5,622.3,58,622.5z M67,481.3c-0.2,0.3-0.3,0.6-0.5,0.8
			c-0.1,0.3-0.3,0.5-0.4,0.8l-1.8,2.6v0.1H67V483c0-0.3,0-0.5,0-0.8S67,481.6,67,481.3L67,481.3z M66.5,479.8h2.2v5.9H70v1.4h-1.3
			v2.5H67V487h-4.4v-1.2L66.5,479.8z M51.4,485.8c0.4-1.1,1.1-2,1.9-2.7c0.8-0.6,1.8-1,3-1c1.2,0,2.2,0.3,3,1
			c0.8,0.6,1.4,1.5,1.8,2.6c0.4,1.2,0.5,2.5,0.5,4c0,1.6-0.2,3-0.6,4.2c-0.4,1.2-1,2.1-1.8,2.7c-0.8,0.6-1.8,0.9-3,0.9
			c-1.2,0-2.1-0.4-2.9-1c-0.8-0.6-1.4-1.5-1.8-2.6c-0.4-1.2-0.6-2.5-0.6-4C50.8,488.4,51,487,51.4,485.8z M58,485.8
			c-0.4-1-1-1.5-1.8-1.5c-0.8,0-1.4,0.5-1.9,1.4c-0.5,0.9-0.7,2.3-0.7,4.2c0,1.8,0.2,3.2,0.6,4.1c0.5,0.9,1.1,1.4,1.9,1.4
			c0.8,0,1.4-0.5,1.8-1.5s0.7-2.3,0.7-4.2C58.7,488.1,58.5,486.8,58,485.8z M40.4,486.3l-0.5-2.1l3.6-1.8h2.4v14.9h-2.8V485H43
			L40.4,486.3z M56.2,353.3c-0.8,0-1.4,0.5-1.9,1.4c-0.5,0.9-0.7,2.3-0.7,4.2c0,1.8,0.2,3.2,0.6,4.1c0.5,0.9,1.1,1.4,1.9,1.4
			c0.8,0,1.4-0.5,1.8-1.5s0.7-2.3,0.7-4.2c0-1.7-0.2-3.1-0.7-4C57.6,353.8,57,353.3,56.2,353.3z M61,354.8c0.4,1.2,0.5,2.5,0.5,4
			c0,1.6-0.2,3-0.6,4.2s-1,2.1-1.8,2.7c-0.8,0.6-1.8,0.9-3,0.9c-1.2,0-2.1-0.4-2.9-1c-0.8-0.6-1.4-1.5-1.8-2.6
			c-0.4-1.2-0.6-2.5-0.6-4c0-1.6,0.2-2.9,0.6-4.1c0.4-1.1,1.1-2,1.9-2.7c0.8-0.6,1.8-1,3-1c1.2,0,2.2,0.3,3,1
			C60,352.8,60.6,353.7,61,354.8z M69.1,348.8v1.5h-3.8l-0.3,1.9c0.1,0,0.2,0,0.3,0c0.1,0,0.3,0,0.4,0c0.4,0,0.9,0,1.3,0.1
			c0.4,0.1,0.8,0.3,1.1,0.5c0.4,0.2,0.7,0.6,0.9,1c0.2,0.4,0.4,0.9,0.4,1.5c0,0.6-0.1,1.2-0.4,1.7s-0.8,0.9-1.4,1.2s-1.3,0.5-2,0.5
			c-0.6,0-1.1-0.1-1.5-0.2c-0.5-0.1-0.8-0.3-1-0.4l0.3-1.4c0.2,0.1,0.5,0.3,0.9,0.3c0.4,0.1,0.8,0.2,1.3,0.2c0.4,0,0.7-0.1,1-0.2
			c0.3-0.1,0.6-0.3,0.8-0.6c0.2-0.3,0.3-0.6,0.3-1c0-0.6-0.2-1-0.6-1.4c-0.4-0.3-1.1-0.5-2.1-0.5c-0.3,0-0.5,0-0.8,0.1
			c-0.2,0-0.4,0-0.6,0l0.6-4.9L69.1,348.8L69.1,348.8z M40.4,355.3l-0.5-2.1l3.6-1.8h2.4v14.9h-2.8V354H43L40.4,355.3z M43.1,218
			L43.1,218l-2.8,1.4l-0.5-2.1l3.6-1.8h2.4v14.9H43V218H43.1z M58,218.8c-0.4-1-1-1.4-1.8-1.4c-0.8,0-1.4,0.5-1.9,1.4
			c-0.5,0.9-0.7,2.3-0.7,4.2c0,1.8,0.2,3.2,0.6,4.1c0.5,0.9,1.1,1.4,1.9,1.4c0.8,0,1.4-0.5,1.8-1.5s0.7-2.4,0.7-4.1
			C58.7,221.1,58.5,219.8,58,218.8z M53.3,216.1c0.8-0.6,1.8-0.9,3-0.9c1.2,0,2.2,0.3,3,1c0.8,0.6,1.4,1.5,1.8,2.6
			c0.4,1.2,0.5,2.5,0.5,3.9c0,1.6-0.2,3-0.6,4.2c-0.4,1.2-1,2.1-1.8,2.7c-0.8,0.6-1.8,1-3,1c-1.2,0-2.1-0.4-2.9-1
			c-0.8-0.6-1.4-1.5-1.8-2.6c-0.4-1.2-0.6-2.5-0.6-4c0-1.6,0.2-2.9,0.6-4.1C51.8,217.7,52.5,216.8,53.3,216.1z M64.8,220.1
			c0.1,0.3,0.4,0.6,0.7,0.8c0.3,0.2,0.6,0.3,0.9,0.3c0.5,0,0.9-0.2,1.1-0.5c0.3-0.4,0.5-0.9,0.5-1.5c0-0.6-0.1-1-0.5-1.4
			c-0.3-0.3-0.7-0.5-1.3-0.5c-0.3,0-0.6,0.1-0.9,0.3c-0.3,0.2-0.5,0.5-0.6,0.8c0,0.1-0.1,0.1-0.1,0.3c0,0.1,0,0.2,0,0.3
			C64.6,219.4,64.7,219.8,64.8,220.1z M66,213.1c0.6-0.2,1.2-0.4,1.9-0.4c0.2,0,0.4-0.1,0.6-0.1c0.1,0,0.3,0,0.4,0v1.5
			c-0.1,0-0.3,0-0.5,0c-0.1,0-0.3,0-0.5,0c-0.7,0.1-1.2,0.3-1.7,0.6c-0.4,0.3-0.8,0.6-1.1,1c-0.3,0.4-0.4,0.8-0.5,1.3h0.1
			c0.2-0.3,0.5-0.5,0.9-0.7c0.4-0.2,0.8-0.3,1.3-0.3s1,0.1,1.5,0.4c0.4,0.3,0.8,0.6,1.1,1.1s0.4,1,0.4,1.7c0,0.6-0.1,1.2-0.5,1.7
			c-0.3,0.5-0.6,1-1.1,1.3c-0.5,0.3-1.1,0.5-1.8,0.5c-0.8,0-1.5-0.2-2-0.5c-0.6-0.4-1-0.9-1.3-1.5c-0.3-0.6-0.5-1.4-0.5-2.1
			c0-0.9,0.2-1.8,0.5-2.5c0.3-0.7,0.7-1.3,1.2-1.8C64.9,213.7,65.4,213.4,66,213.1z M63.1,79.4v-1.6h6.5V79l-4.1,8.5h-2l4.1-8.1
			H63.1z M56.3,80.2c1.2,0,2.2,0.3,3,1c0.8,0.6,1.4,1.5,1.8,2.6c0.4,1.2,0.5,2.5,0.5,3.9c0,1.6-0.2,3-0.6,4.2
			c-0.4,1.2-1,2.1-1.8,2.7c-0.8,0.6-1.8,1-3,1c-1.2,0-2.1-0.4-2.9-1c-0.8-0.6-1.4-1.5-1.8-2.6c-0.4-1.2-0.6-2.5-0.6-4
			c0-1.6,0.2-2.9,0.6-4.1c0.4-1.1,1.1-2,1.9-2.7C54.1,80.5,55.1,80.2,56.3,80.2z M58,83.8c-0.4-1-1-1.4-1.8-1.4
			c-0.8,0-1.4,0.5-1.9,1.4c-0.5,0.9-0.7,2.3-0.7,4.2c0,1.8,0.2,3.2,0.6,4.1c0.5,0.9,1.1,1.4,1.9,1.4c0.8,0,1.4-0.5,1.8-1.5
			s0.7-2.4,0.7-4.1C58.7,86.1,58.5,84.8,58,83.8z M40.4,84.4l-0.5-2.1l3.6-1.8h2.4v14.9h-2.8V83H43L40.4,84.4z"/>
	</g>
</g>
</svg>
